PathFileType	4	(X/Y/Z)	RUN4																																																													
DataRate	CameraRate	NumFrames	NumMarkers	Units	OrigDataRate	OrigDataStartFrame	OrigNumFrames																																																									
72	72	19	21	mm	72	534	854																																																									
Frame#	Time	Hand_Start			Hand_Thumb1			Hand_Thumb2			Hand_Thumb3			Hand_Index1			Hand_Index2			Hand_Index3			Hand_Middle1			Hand_Middle2			Hand_Middle3			Hand_Ring1			Hand_Ring2			Hand_Ring3			Hand_Pinky1			Hand_Pinky2			Hand_Pinky3			Hand_ThumbTip			Hand_IndexTip			Hand_MiddleTip			Hand_RingTip			Hand_PinkyTip		
		X1	Y1	Z1	X2	Y2	Z2	X3	Y3	Z3	X4	Y4	Z4	X5	Y5	Z5	X6	Y6	Z6	X7	Y7	Z7	X8	Y8	Z8	X9	Y9	Z9	X10	Y10	Z10	X11	Y11	Z11	X12	Y12	Z12	X13	Y13	Z13	X14	Y14	Z14	X15	Y15	Z15	X16	Y16	Z16	X17	Y17	Z17	X18	Y18	Z18	X19	Y19	Z19	X20	Y20	Z20	X21	Y21	Z21
																																																																
534	7.402777778	468.5323	235.0382	142.3258	457.98	277.344	114.8679	455.561	297.159	88.1402	466.269	317.2237	61.96848	483.4723	333.3766	121.1592	483.6162	341.3482	83.06967	480.1503	338.6788	58.52	504.4476	324.1885	122.2468	501.2014	330.0139	78.70973	484.472	307.242	79.47823	518.3465	309.1265	116.3053	510.497	311.4449	77.13997	490.2619	293.1851	77.85973	528.5088	290.8669	108.1968	515.9937	294.2919	79.47098	500.4306	280.5806	81.49909	469.925	331.0585	41.14978	475.8089	330.833	37.37055	478.7888	299.9251	103.3896	484.139	285.3284	100.8065	494.8873	272.2783	101.6959
535	7.416666667	476.7706	234.5199	143.9122	466.5712	276.4019	115.684	464.5848	295.8557	88.65699	475.7612	315.6395	62.46705	491.6212	332.6577	121.7731	492.5482	339.9448	83.5579	489.6892	336.906	58.97292	512.6193	323.6187	123.4879	510.2363	328.7689	79.81021	493.7773	305.8013	80.58971	526.7478	308.5668	118.0866	519.72	310.2626	78.73371	499.6883	291.7701	79.12733	537.2121	290.2648	110.4731	525.2396	293.0861	81.45193	509.7862	279.2399	83.40099	479.8142	329.2173	41.55287	485.8892	328.6981	37.85672	487.5542	298.5539	104.3875	493.0881	284.0747	101.9964	503.8267	271.1432	103.5625
536	7.430555556	485.391	233.7614	145.225	474.8702	275.4408	116.8157	472.8271	294.8129	89.73429	483.8447	314.719	63.56996	499.1916	332.0141	122.9175	500.2177	339.1961	84.68486	497.6146	336.1762	60.06921	520.2865	323.2378	124.8013	517.9262	328.0566	81.08468	501.8948	304.7948	82.03618	534.6352	308.3459	119.5389	527.6925	309.6972	80.15741	507.967	290.8807	80.64383	545.3749	290.1532	112.0479	533.6321	292.8509	82.9212	518.3852	278.7721	84.8273	487.7918	328.3291	42.65625	494.1454	328.0053	38.88182	495.7176	297.5325	105.8414	501.474	283.2537	103.5664	512.4856	270.6569	104.9992
537	7.444444444	492.5312	232.6339	146.0734	481.8664	274.4227	117.8788	479.7027	293.9147	90.89294	490.4395	314.0104	64.75677	506.1905	330.9816	124.0993	506.9013	338.3222	85.88977	504.2003	335.4917	61.26209	527.2971	322.2039	125.8399	524.5358	327.0494	82.14955	508.6459	303.6979	83.26506	541.6232	307.3381	120.4434	534.3813	308.7462	81.11788	514.7184	289.8756	81.93879	552.3298	289.1794	112.8234	540.6711	292.3025	83.70548	525.4554	278.1876	85.59416	494.1165	327.7676	43.89022	500.7209	327.548	39.9901	502.7294	296.3989	107.1253	508.5998	282.363	105.0016	519.7824	270.003	105.8029
538	7.458333333	498.4335	231.4369	146.8506	488.1293	273.4055	118.7875	486.1563	293.0227	91.87777	496.9942	313.1463	65.80488	512.956	329.726	125.1697	513.6625	337.5296	87.05182	510.8854	334.9302	62.40719	533.9839	320.7431	126.8145	531.1563	325.8551	83.15881	515.1231	302.6093	84.42202	548.1516	305.7609	121.3227	540.7315	307.301	82.03547	520.9313	288.5836	83.04274	558.6623	287.5282	113.6075	547.06	291.0553	84.51312	531.7568	277.0068	86.17848	500.684	326.9793	44.9909	507.323	327.2046	41.06879	509.3476	295.4105	108.3471	514.9651	281.1704	106.1776	526.118	268.6819	106.3395
539	7.472222222	504.3782	231.0412	147.1762	493.9236	273.1151	119.3252	491.7948	292.8222	92.49309	502.2969	313.0601	66.37117	518.9347	329.3586	125.6474	519.1302	337.5595	87.60693	516.0563	335.1901	62.97434	539.953	320.3038	126.9908	536.6154	325.6564	83.40003	520.5895	302.4311	85.0657	554.0012	305.2963	121.2659	546.0402	306.9672	82.09003	526.2695	288.2538	83.61343	564.3535	287.0573	113.3537	552.2926	290.6307	84.45207	537.057	276.5473	86.41319	505.6964	326.9941	45.57505	512.3123	327.7576	41.563	515.2608	295.3488	109.1288	520.8647	280.9969	106.9351	531.9234	268.2946	106.7382
540	7.486111111	511.3289	231.2927	146.8951	500.4307	273.4355	119.3189	498.0226	293.2753	92.60868	508.0913	313.7779	66.5225	525.1287	329.8035	125.7562	524.8991	338.3395	87.78974	521.6414	336.1381	63.16511	546.2103	320.8672	126.8825	542.4779	326.4592	83.3538	526.674	303.095	85.18872	560.2998	305.973	120.9666	552.0027	307.8234	81.86852	532.4482	288.9096	83.68298	570.6952	287.8366	112.8767	558.3199	291.4262	84.11036	543.2606	277.1894	86.31258	511.2088	327.8729	45.79093	517.8471	328.9298	41.68607	521.6859	295.9411	109.3037	527.4858	281.6213	107.093	538.5475	268.9237	106.7338
541	7.5	517.8642	231.3042	146.4801	506.7402	273.5286	119.1211	504.1379	293.5113	92.53583	514.176	314.1165	66.51895	531.3724	329.9178	125.634	531.1035	338.8395	87.75668	527.7507	336.6841	63.14081	552.478	321.0269	126.6678	548.7732	327.011	83.18888	533.0341	303.6053	85.05371	566.5846	306.1857	120.6598	558.2069	308.1944	81.58682	538.6778	289.2418	83.26019	576.9979	288.1011	112.478	564.3041	291.4766	83.82464	549.3323	277.1624	86.11844	517.4065	328.2659	45.84163	523.833	329.3918	41.7123	528.1733	296.4092	109.1821	533.6756	281.7513	106.5978	544.646	268.787	106.5011
542	7.513888889	523.0243	231.2423	146.9273	511.8381	273.3386	119.3968	509.1782	293.2538	92.76665	519.2227	313.7552	66.67052	536.5063	329.7501	125.5706	536.203	338.6534	87.68912	532.7802	336.3922	63.09241	557.6121	320.8578	126.5905	553.9112	326.8008	83.10578	538.1441	303.4192	85.03451	571.6979	305.9834	120.6164	563.2427	307.826	81.55191	543.6786	288.9138	83.27555	582.0838	287.8563	112.4938	569.0795	290.7984	83.93227	554.1503	276.4695	86.40644	522.5016	327.8216	45.94425	528.7771	328.9587	41.72836	533.3097	296.3077	109.1932	538.649	281.4794	106.6251	549.466	268.1654	106.8188
543	7.527777778	528.7592	230.7877	147.1171	517.5976	272.619	119.1751	515.1485	292.3823	92.41177	525.3678	312.8375	66.34708	541.7154	329.2704	125.3234	541.8222	337.9792	87.39562	538.7333	335.5775	62.76794	562.8772	320.5548	126.6555	559.689	326.2381	83.09542	544.0646	302.7485	84.8684	577.1536	305.7585	120.9452	569.1674	307.2908	81.7688	549.7159	288.2504	83.35321	587.7826	287.6671	113.0614	574.9921	290.1844	84.36305	560.1647	275.7362	86.75332	528.7746	326.8365	45.59591	535.0672	328.0247	41.38526	538.9472	295.6972	108.9865	544.4439	280.9211	106.6826	555.2747	267.4991	107.1447
544	7.541666667	531.7862	230.3805	147.096	520.7484	271.9994	118.7881	518.6318	291.7076	91.9558	528.89	312.2911	66.00766	544.3034	328.8699	125.0768	544.8718	337.5043	87.13623	542.1509	335.113	62.46415	565.5091	320.3105	126.6952	562.7979	325.7787	83.07535	547.3139	302.1964	84.84831	579.9574	305.595	121.2131	572.4072	306.8964	81.94196	553.1147	287.706	83.65212	590.8079	287.5502	113.5269	578.4596	289.9933	84.62908	563.6878	275.5019	87.10081	532.2631	326.3612	45.299	538.8427	327.5962	41.01053	542.0414	295.3569	108.9939	547.8497	280.6428	107.065	558.7294	267.4869	107.5637
545	7.555555556	537.9425	229.3668	145.8179	527.1943	270.9361	117.3247	525.471	290.6687	90.48241	535.838	311.405	64.69961	550.4219	327.8993	123.9703	551.5487	336.6799	86.07568	549.174	334.3839	61.35898	571.6328	319.4034	125.8371	569.4722	324.9215	82.19281	554.0272	301.3119	83.94068	586.189	304.7329	120.5226	578.9939	305.9019	81.18085	559.8054	286.621	83.03741	597.1839	286.7228	112.9611	585.0828	289.0061	83.94589	570.3861	274.4735	86.61499	539.2717	325.5743	44.06873	546.1458	326.9278	39.84288	548.6022	294.6607	108.1051	554.5397	279.7676	106.5125	565.4247	266.6783	107.1621
546	7.569444444	543.9412	228.2628	145.0628	533.4419	269.7796	116.4006	531.912	289.4655	89.51253	542.4165	310.1411	63.73636	556.7876	326.6997	122.9986	558.2717	335.5422	85.13067	556.0143	333.2191	60.40549	577.9666	318.1493	124.9748	576.0269	323.57	81.30791	560.5092	300.0258	83.28108	592.5028	303.4234	119.7596	585.2872	304.2942	80.41371	566.1169	285.0375	82.66673	603.4776	285.3619	112.2916	591.2563	287.2869	83.30079	576.6128	272.7543	86.24741	545.9986	324.2645	43.09943	553.0115	325.6897	38.91148	555.1422	293.7618	107.5617	560.9829	278.4876	106.2572	571.6958	265.1538	106.8781
547	7.583333333	549.8407	226.8558	144.5717	539.5123	268.328	115.7842	537.9778	287.9545	88.85268	548.4968	308.4976	62.97702	563.3162	325.0993	122.0261	564.9921	333.9438	84.16666	562.6388	331.4275	59.46926	584.4401	316.4138	124.003	582.3359	321.4498	80.29761	566.6761	298.0305	82.60553	598.8659	301.565	118.8294	591.5345	302.2746	79.50168	572.2967	283.1075	81.93535	609.7031	283.3945	111.4253	597.3971	285.2271	82.46437	582.7065	270.764	85.5178	552.1559	322.5292	42.29087	559.4575	323.6989	38.07182	561.4853	292.2088	107.0341	567.1895	276.6766	105.5644	577.791	263.2541	106.1819
548	7.597222222	556.2789	224.788	142.989	546.3989	266.1778	113.9259	545.1444	285.7174	86.9169	555.8824	306.0705	60.98104	570.7092	322.7645	119.8787	572.6016	331.618	82.0317	570.1759	328.9297	57.35948	591.7476	313.8818	121.8912	589.6586	318.6819	78.15858	573.7768	295.4354	80.68738	606.022	298.8622	116.7927	598.6577	299.4344	77.46895	579.2741	280.4243	79.97587	616.6743	280.5437	109.4847	604.3793	282.3606	80.51815	589.5628	268.0355	83.61326	559.7929	319.9778	40.25712	566.8403	321.0267	36.04933	568.6377	289.9551	105.2056	574.1302	274.1361	103.6355	584.6047	260.6623	104.3163
549	7.611111111	562.8979	223.3787	141.0835	552.8479	264.5711	111.7986	551.6156	284.0531	84.74693	562.296	304.4735	58.84038	576.6252	321.3896	117.6927	578.7174	330.2002	79.8461	576.4176	327.3208	55.18337	597.7267	312.6942	119.8575	595.9047	317.4124	76.10408	580.1993	294.0334	78.51028	612.1575	297.7784	114.8959	605.1062	298.2849	75.51374	585.8985	279.0755	77.85027	623.0067	279.525	107.7164	610.9201	281.2145	78.65465	596.202	266.7607	81.61874	566.2168	318.3854	38.12139	573.2464	319.2728	33.90253	574.8582	288.4147	102.954	580.6578	272.7567	101.4802	591.163	259.3625	102.2932
550	7.625	566.1084	223.0064	139.6421	555.9241	263.987	110.1069	554.8893	283.5417	83.09952	565.5113	304.2646	57.40973	578.765	321.1612	116.2512	581.1609	329.9233	78.41134	579.2149	326.9983	53.7235	599.9565	312.7632	118.6926	598.6773	317.4761	74.91942	583.2261	293.8861	76.86618	614.6533	298.0413	113.9363	608.1852	298.5287	74.45405	589.2175	279.0368	76.37624	625.8428	279.929	106.9239	614.2704	281.6167	77.65341	599.6312	267.0277	80.33118	569.4348	318.343	36.80399	576.5398	319.1025	32.31786	577.4226	287.8575	101.1058	583.6888	272.5632	99.89852	594.3142	259.5428	100.9047
551	7.638888889	571.5989	221.9717	137.8457	561.4153	262.6833	107.9401	560.6143	282.2523	80.93515	571.2353	303.1489	55.38611	583.6033	320.1152	114.0672	586.3079	328.7887	76.22778	584.6341	325.7537	51.53329	604.8444	311.9201	116.7541	603.9977	316.4422	72.95023	588.6861	292.7467	74.71211	619.7166	297.3064	112.2145	613.7371	297.6932	72.65422	594.934	278.0246	74.3827	631.1337	279.2597	105.4034	620.049	280.9626	75.9456	605.4221	266.3306	78.45057	575.1784	317.3198	34.84765	582.3323	317.9349	30.05616	582.5244	286.5213	98.81328	589.231	271.5807	97.87161	599.8547	258.8688	98.9661
552	7.652777778	577.8973	220.7717	135.9579	567.8292	261.227	105.6678	567.2205	280.6798	78.57402	577.9501	301.5018	53.00971	589.8011	318.7689	111.5339	592.7182	327.3019	73.67821	591.1643	324.0965	48.99759	611.047	310.6394	114.3771	610.4466	314.8788	70.54103	595.1225	291.1909	72.29494	625.9714	296.0262	110.0108	620.2638	296.2607	70.40917	601.5292	276.5245	72.11165	637.4586	277.9561	103.3816	626.7622	279.7382	73.78529	612.0688	265.1567	76.19362	581.9528	315.6095	32.43927	589.0452	316.2722	27.5036	588.7302	284.9477	96.33137	595.7592	270.207	95.61843	606.2942	257.7689	96.67888
